<svg width="143" height="144" viewBox="0 0 143 144" fill="none" xmlns="http://www.w3.org/2000/svg">
<g id="plant 1" clip-path="url(#clip0_1902_2)">
<g id="Group">
<g id="Group_2">
<path id="Vector" d="M139.256 20.0947C122.012 20.0947 97.6511 21.5375 85.2019 33.9801C79.812 39.37 77.1205 48.1566 77.8193 58.1018C77.91 59.4154 78.7835 60.5345 80.0385 60.9489C81.2872 61.3565 82.659 60.9746 83.5131 59.9719C90.4365 51.8256 99.042 45.2971 109.11 40.5671C109.964 40.1595 110.974 40.1271 111.892 40.4507C112.701 40.7418 113.335 41.2917 113.665 41.9972C114.351 43.4467 114.131 45.3553 111.853 46.4293C111.724 46.4939 111.607 46.5782 111.478 46.6365C111.433 46.6559 111.381 46.6495 111.342 46.6689C86.5349 58.3287 74.3383 78.6715 68.7995 99.5901C64.762 73.3981 56.2341 57.9789 48.1785 48.513C42.3488 40.9557 36.6158 36.9503 33.3032 34.6859C32.6884 34.2652 30.8316 32.9971 30.0615 32.227C28.7998 30.9653 28.7998 28.9141 30.0615 27.6524C31.3232 26.397 33.3808 26.397 34.7848 27.7946C35.1278 28.0988 35.6777 28.487 36.3765 28.9529L36.9525 29.3411C41.6369 32.5503 50.3592 38.5096 58.0976 51.3403C58.79 52.4856 60.1294 53.1004 61.4299 52.8544C62.7499 52.6215 63.785 51.6057 64.0441 50.2921C65.7328 41.6672 64.9758 28.8686 57.2826 21.1754C44.8337 8.73921 20.4727 7.29642 3.2356 7.29642C1.44947 7.29611 0 8.74558 0 10.5314C0 27.7749 1.44279 52.1359 13.8853 64.5851C19.0745 69.7743 27.0786 72.1036 35.0305 72.1036C41.5201 72.1036 47.8806 70.4794 52.7528 67.6648C59.3978 81.4337 64.7037 102.003 64.7037 133.469C64.7037 135.254 66.1532 136.704 67.939 136.704C69.7248 136.704 71.1743 135.254 71.1743 133.469C71.1743 115.915 74.183 94.8468 85.3702 77.5063C89.8542 81.8868 97.5735 84.6626 106.127 84.9213C106.554 84.9344 106.975 84.9407 107.395 84.9407C116.085 84.9407 123.765 82.2168 128.599 77.3768C141.047 64.9278 142.484 40.5668 142.484 23.3231C142.491 21.5375 141.048 20.0947 139.256 20.0947Z" fill="#00B307"/>
</g>
</g>
</g>
<defs>
<clipPath id="clip0_1902_2">
<rect width="142.484" height="142.484" fill="white" transform="translate(0 0.757904)"/>
</clipPath>
</defs>
</svg>
